<?xml version="1.0" encoding="utf-8"?>
<!-- Generator: Adobe Illustrator 27.9.0, SVG Export Plug-In . SVG Version: 6.00 Build 0)  -->
<svg version="1.1" id="图层_1" xmlns:ev="http://www.w3.org/2001/xml-events"
	 xmlns="http://www.w3.org/2000/svg" xmlns:xlink="http://www.w3.org/1999/xlink" x="0px" y="0px" viewBox="0 0 1920 1080"
	 style="enable-background:new 0 0 1920 1080;" xml:space="preserve">
<style type="text/css">
	.st0{fill:none;stroke:#000000;}
</style>
<g id="co2">
	<path class="st0" d="M766,400c0,13-0.7,26-2.1,38.9l-89.5-9.6c1-9.7,1.6-19.5,1.6-29.3H766z"/>
	<path class="st0" d="M766,400c0,29-3.4,57.9-10.3,86.1l-87.5-21.2c5.1-21.3,7.7-43,7.7-64.9H766z"/>
	<path class="st0" d="M766,400c0,45.1-8.3,89.7-24.5,131.8l-84-32.4C669.7,467.7,676,434,676,400H766z"/>
	<path class="st0" d="M766,400c0,61.2-15.4,121.5-44.7,175.2l-79-43.1c22.1-40.5,33.7-86,33.7-132.1H766z"/>
	<path class="st0" d="M766,400c0,77.5-24.6,153-70.3,215.6l-72.7-53c34.4-47.2,53-104.2,53-162.6H766z"/>
	<path class="st0" d="M766,400c0,94-36.1,184.3-101,252.4l-65.2-62.1C648.7,539,676,470.9,676,400H766z"/>
	<path class="st0" d="M766,400c0,110.6-50.1,215.4-136.2,284.8l-56.5-70C638.3,562.4,676,483.4,676,400H766z"/>
	<path class="st0" d="M766,400c0,127.6-66.4,245.9-175.3,312.4l-46.9-76.8C625.9,585.5,676,496.2,676,400H766z"/>
	<path class="st0" d="M766,400c0,144.8-85.3,276-217.7,334.6l-36.5-82.3C611.6,608.1,676,509.2,676,400H766z"/>
	<path class="st0" d="M766,400c0,162.3-106.9,305.3-262.7,351.1l-25.4-86.3C595.4,630.2,676,522.4,676,400H766z"/>
	<path class="st0" d="M766,400c0,180.3-131.3,333.7-309.4,361.6l-13.9-88.9C577,651.6,676,535.9,676,400H766z"/>
	<path class="st0" d="M766,400c0,198.7-158.5,361-357.1,365.9l-2.2-90C556.5,672.3,676,549.8,676,400H766z"/>
	<path class="st0" d="M766,400c0,202.1-163.9,366-366,366c-13,0-26-0.7-38.9-2.1l9.6-89.5c151.6,16.2,287.6-93.5,303.8-245.1
		c1-9.7,1.6-19.5,1.6-29.3H766z"/>
	<path class="st0" d="M766,400c0,202.1-163.9,366-366,366c-29,0-57.9-3.4-86.1-10.3l21.2-87.5c148.2,35.8,297.3-55.2,333.2-203.4
		c5.1-21.3,7.7-43,7.7-64.9H766z"/>
	<path class="st0" d="M766,400c0,202.1-163.9,366-366,366c-45.1,0-89.7-8.3-131.8-24.5l32.4-84c142.2,54.9,302-15.9,356.9-158.1
		C669.7,467.7,676,434,676,400H766z"/>
	<path class="st0" d="M766,400c0,202.1-163.9,366-366,366c-61.2,0-121.5-15.4-175.2-44.7l43.1-79c133.8,73,301.5,23.6,374.4-110.2
		c22.1-40.5,33.7-86,33.7-132.1H766z"/>
	<path class="st0" d="M766,400c0,202.1-163.9,366-366,366c-77.5,0-153-24.6-215.6-70.3l53-72.7c123.2,89.8,295.8,62.8,385.6-60.4
		c34.4-47.2,53-104.2,53-162.6H766z"/>
	<path class="st0" d="M766,400c0,202.1-163.9,366-366,366c-94,0-184.3-36.1-252.4-101l62.1-65.2c110.4,105.1,285.1,100.8,390.2-9.5
		C648.7,539,676,470.9,676,400H766z"/>
	<path class="st0" d="M766,400c0,202.1-163.9,366-366,366c-110.6,0-215.4-50.1-284.8-136.2l70-56.5
		c95.7,118.6,269.5,137.2,388.1,41.5C638.3,562.4,676,483.4,676,400H766z"/>
	<path class="st0" d="M766,400c0,202.1-163.9,366-366,366c-127.6,0-245.9-66.4-312.4-175.3l76.8-46.9
		c79.4,130.1,249.3,171.2,379.4,91.8C625.9,585.5,676,496.2,676,400H766z"/>
	<path class="st0" d="M766,400c0,202.1-163.9,366-366,366c-144.8,0-276-85.3-334.6-217.7l82.3-36.5
		c61.8,139.4,224.8,202.3,364.2,140.5C611.6,608.1,676,509.2,676,400H766z"/>
	<path class="st0" d="M766,400c0,202.1-163.9,366-366,366C237.7,766,94.7,659.1,48.9,503.3l86.3-25.4
		c43,146.2,196.5,229.9,342.7,186.8C595.4,630.2,676,522.4,676,400H766z"/>
	<path class="st0" d="M766,400c0,202.1-163.9,366-366,366C219.7,766,66.3,634.7,38.4,456.6l88.9-13.9
		c23.6,150.6,164.8,253.6,315.4,230C577,651.6,676,535.9,676,400H766z"/>
	<path class="st0" d="M766,400c0,202.1-163.9,366-366,366S34,602.1,34,400h90c0,152.4,123.6,276,276,276s276-123.6,276-276H766z"/>
</g>
<g id="o2">
	<path class="st0" d="M124,400c0,9.8,0.5,19.6,1.6,29.3l-89.5,9.6C34.7,426,34,413,34,400H124z"/>
	<path class="st0" d="M124,400c0,21.9,2.6,43.6,7.7,64.9l-87.5,21.2C37.4,457.9,34,429,34,400H124z"/>
	<path class="st0" d="M124,400c0,34,6.3,67.7,18.5,99.4l-84,32.4C42.3,489.7,34,445.1,34,400H124z"/>
	<path class="st0" d="M124,400c0,46.2,11.6,91.6,33.7,132.1l-79,43.1C49.4,521.5,34,461.2,34,400H124z"/>
	<path class="st0" d="M124,400c0,58.5,18.6,115.4,53,162.6l-72.7,53C58.6,553,34,477.5,34,400H124z"/>
	<path class="st0" d="M124,400c0,70.9,27.3,139,76.1,190.3L135,652.4C70.1,584.3,34,494,34,400H124z"/>
	<path class="st0" d="M124,400c0,83.4,37.7,162.4,102.7,214.8l-56.5,70C84.1,615.4,34,510.6,34,400H124z"/>
	<path class="st0" d="M124,400c0,96.2,50.1,185.5,132.2,235.6l-46.9,76.8C100.4,645.9,34,527.6,34,400H124z"/>
	<path class="st0" d="M124,400c0,109.2,64.4,208.1,164.2,252.3l-36.5,82.3C119.3,676,34,544.8,34,400H124z"/>
	<path class="st0" d="M124,400c0,122.4,80.6,230.2,198.1,264.8l-25.4,86.3C140.9,705.3,34,562.3,34,400H124z"/>
	<path class="st0" d="M124,400c0,135.9,99,251.6,233.3,272.7l-13.9,88.9C165.3,733.7,34,580.3,34,400H124z"/>
	<path class="st0" d="M124,400c0,149.8,119.5,272.3,269.3,275.9l-2.2,90C192.5,761,34,598.7,34,400H124z"/>
	<path class="st0" d="M124,400c0,9.8,0.5,19.6,1.6,29.3c16.2,151.6,152.2,261.3,303.8,245.1l9.6,89.5C426,765.3,413,766,400,766
		C197.9,766,34,602.1,34,400H124z"/>
	<path class="st0" d="M124,400c0,21.9,2.6,43.6,7.7,64.9c35.8,148.2,185,239.2,333.2,203.4l21.2,87.5C457.9,762.6,429,766,400,766
		C197.9,766,34,602.1,34,400H124z"/>
	<path class="st0" d="M124,400c0,34,6.3,67.7,18.5,99.4c54.9,142.2,214.6,213,356.9,158.1l32.4,84c-42,16.2-86.7,24.5-131.8,24.5
		C197.9,766,34,602.1,34,400H124z"/>
	<path class="st0" d="M124,400c0,46.2,11.6,91.6,33.7,132.1c73,133.8,240.6,183.2,374.4,110.2l43.1,79
		C521.5,750.6,461.2,766,400,766C197.9,766,34,602.1,34,400H124z"/>
	<path class="st0" d="M124,400c0,58.5,18.6,115.4,53,162.6c89.8,123.2,262.5,150.2,385.6,60.4l53,72.7C553,741.4,477.5,766,400,766
		C197.9,766,34,602.1,34,400H124z"/>
	<path class="st0" d="M124,400c0,70.9,27.3,139,76.1,190.3c105.1,110.4,279.8,114.7,390.2,9.5l62.1,65.2
		C584.3,729.9,494,766,400,766C197.9,766,34,602.1,34,400H124z"/>
	<path class="st0" d="M124,400c0,83.4,37.7,162.4,102.7,214.8c118.6,95.7,292.4,77.2,388.1-41.5l70,56.5
		C615.4,715.9,510.6,766,400,766C197.9,766,34,602.1,34,400H124z"/>
	<path class="st0" d="M124,400c0,96.2,50.1,185.5,132.2,235.6c130.1,79.4,300,38.3,379.4-91.8l76.8,46.9
		C645.9,699.6,527.6,766,400,766C197.9,766,34,602.1,34,400H124z"/>
	<path class="st0" d="M124,400c0,109.2,64.4,208.1,164.2,252.3c139.4,61.8,302.4-1.2,364.2-140.5l82.3,36.5
		C676,680.7,544.8,766,400,766C197.9,766,34,602.1,34,400H124z"/>
	<path class="st0" d="M124,400c0,122.4,80.6,230.2,198.1,264.8c146.2,43,299.7-40.6,342.7-186.8l86.3,25.4
		C705.3,659.1,562.3,766,400,766C197.9,766,34,602.1,34,400H124z"/>
	<path class="st0" d="M124,400c0,135.9,99,251.6,233.3,272.7c150.6,23.6,291.8-79.4,315.4-230l88.9,13.9
		C733.7,634.7,580.3,766,400,766C197.9,766,34,602.1,34,400H124z"/>
	<path class="st0" d="M124,400c0,152.4,123.6,276,276,276s276-123.6,276-276h90c0,202.1-163.9,366-366,366S34,602.1,34,400H124z"/>
</g>
<line class="st0" x1="124" y1="400" x2="676" y2="400"/>
<line class="st0" x1="400" y1="405" x2="400" y2="395"/>
</svg>
